# xmcd
#
# Track frame offsets:
#	150
#	17920
#	32279
#	48523
#	60739
#	76307
#	90361
#
# Disc length: 1818 seconds
#
# Revision: 1
# Processed by: cddbd v1.5.2PL0 Copyright (c) Steve Scherf et al.
# Submitted via: audiograbber 1.83.01
#
DISCID=47071807
DTITLE=Burns and Poe - Burns and Poe CD2
DYEAR=2011
DGENRE=Country
TTITLE0=Second Chance
TTITLE1=Slow And Easy
TTITLE2=It's Always A Woman
TTITLE3=Move On
TTITLE4=Can You Do It Again
TTITLE5=Macon, GA
TTITLE6=Live Acoustic Medley: Islands In The Stream, You're The Reason God Made
TTITLE6=Oklahoma, I Got You Babe
EXTD=
EXTT0=
EXTT1=
EXTT2=
EXTT3=
EXTT4=
EXTT5=
EXTT6=
PLAYORDER=
